<svg width="118" height="118" viewBox="0 0 118 118" fill="none" xmlns="http://www.w3.org/2000/svg">
<g filter="url(#filter0_d_1775_2662)">
<rect x="24" y="18" width="70" height="70" rx="9" fill="#33BFFA"/>
</g>
<path d="M46.167 40.1667V69.5001" stroke="white" stroke-width="2.75" stroke-linecap="round" stroke-linejoin="round"/>
<path d="M71.833 40.1667V56.6667" stroke="white" stroke-width="2.75" stroke-linecap="round" stroke-linejoin="round"/>
<path d="M46.167 40.1667C47.8805 38.4872 50.1843 37.5464 52.5837 37.5464C54.9831 37.5464 57.2868 38.4872 59.0003 40.1667C60.7138 41.8463 63.0176 42.7871 65.417 42.7871C67.8164 42.7871 70.1201 41.8463 71.8337 40.1667" stroke="white" stroke-width="2.75" stroke-linecap="round" stroke-linejoin="round"/>
<path d="M46.167 56.6667C47.8805 54.9872 50.1843 54.0464 52.5837 54.0464C54.9831 54.0464 57.2868 54.9872 59.0003 56.6667C60.7138 58.3463 63.0176 59.2871 65.417 59.2871C67.8164 59.2871 70.1201 58.3463 71.8337 56.6667" stroke="white" stroke-width="2.75" stroke-linecap="round" stroke-linejoin="round"/>
<defs>
<filter id="filter0_d_1775_2662" x="0" y="0" width="118" height="118" filterUnits="userSpaceOnUse" color-interpolation-filters="sRGB">
<feFlood flood-opacity="0" result="BackgroundImageFix"/>
<feColorMatrix in="SourceAlpha" type="matrix" values="0 0 0 0 0 0 0 0 0 0 0 0 0 0 0 0 0 0 127 0" result="hardAlpha"/>
<feOffset dy="6"/>
<feGaussianBlur stdDeviation="12"/>
<feColorMatrix type="matrix" values="0 0 0 0 0.2 0 0 0 0 0.74902 0 0 0 0 0.980392 0 0 0 0.2 0"/>
<feBlend mode="normal" in2="BackgroundImageFix" result="effect1_dropShadow_1775_2662"/>
<feBlend mode="normal" in="SourceGraphic" in2="effect1_dropShadow_1775_2662" result="shape"/>
</filter>
</defs>
</svg>
